<svg xmlns="http://www.w3.org/2000/svg" height="480" viewBox="-21 -21 640 640" width="480"><path d="M525.273 72.727C464.836 12.285 384.473-21 299-21c-85.473 0-165.836 33.285-226.273 93.727C12.285 133.164-21 213.527-21 299c0 85.473 33.285 165.836 93.727 226.273C133.164 585.715 213.527 619 299 619c85.473 0 165.836-33.285 226.273-93.727C585.715 464.836 619 384.473 619 299c0-85.473-33.285-165.836-93.727-226.273zm-17.878 434.668C451.73 563.059 377.719 593.71 299 593.71c-78.719 0-152.73-30.652-208.395-86.316C34.941 451.73 4.29 377.719 4.29 299c0-78.719 30.652-152.73 86.316-208.395C146.27 34.941 220.281 4.29 299 4.29c78.719 0 152.73 30.652 208.395 86.316C563.059 146.27 593.71 220.281 593.71 299c0 78.719-30.652 152.73-86.316 208.395zm0 0" data-original="#000000" class="active-path" data-old_color="#000000" fill="#8e0000"/><path d="M299 34.973C153.414 34.973 34.973 153.414 34.973 299c0 50.719 14.422 99.984 41.707 142.48 8.77 13.657 30.062.016 21.273-13.668C73.297 389.41 60.258 344.863 60.258 299 60.258 167.355 167.359 60.254 299 60.254c131.64 0 238.742 107.101 238.742 238.746 0 131.64-107.101 238.742-238.742 238.742-47.871 0-94.043-14.113-133.531-40.808-13.446-9.09-27.633 11.847-14.16 20.949 43.683 29.531 94.757 45.14 147.691 45.14 145.586 0 264.023-118.441 264.023-264.023 0-145.586-118.437-264.027-264.023-264.027zm0 0" data-original="#000000" class="active-path" data-old_color="#000000" fill="#8e0000"/><path d="M182.258 337.594c.215.344 21.512 34.383 45.61 67.976 45.745 63.79 62.652 72.586 74.144 72.586 11.457 0 28.36-8.797 74.105-72.586 24.094-33.593 45.399-67.632 45.613-67.976.207-.336.403-.684.582-1.04 8.41-16.816 18.442-41.593 18.442-64.136 0-35.375-15.133-70.777-41.516-97.125-26.375-26.34-61.816-41.45-97.226-41.45h-.04c-35.413 0-70.855 15.11-97.23 41.45-26.383 26.348-41.515 61.75-41.515 97.125 0 22.55 10.03 47.324 18.445 64.137.18.355.375.703.586 1.039zm119.715-178.469h.039c60.441 0 113.457 52.941 113.457 113.293 0 13.617-5.5 32.168-15.496 52.281-2.614 4.153-21.008 33.27-42.098 62.91-37.605 52.868-52.11 63.036-55.883 64.961-3.773-1.922-18.261-12.082-55.82-64.875-21.094-29.64-39.54-58.843-42.152-62.996-10-20.113-15.504-38.664-15.504-52.281 0-60.352 53.02-113.293 113.457-113.293zm0 0" data-original="#000000" class="active-path" data-old_color="#000000" fill="#8e0000"/><path d="M301.973 318.645c30.148 0 54.675-24.504 54.675-54.622 0-30.117-24.527-54.625-54.675-54.625-30.153 0-54.676 24.508-54.676 54.625 0 30.118 24.523 54.622 54.676 54.622zm0-83.958c16.207 0 29.39 13.16 29.39 29.333 0 16.175-13.183 29.335-29.39 29.335s-29.387-13.16-29.387-29.335c0-16.172 13.18-29.333 29.387-29.333zm0 0M118.762 461.383c-6.77 0-12.535 5.66-12.621 12.426-.094 7.023 5.64 12.808 12.644 12.816 6.977.012 12.754-5.922 12.606-12.898-.133-6.711-5.926-12.344-12.63-12.344zm0 0" data-original="#000000" class="active-path" data-old_color="#000000" fill="#8e0000"/></svg>