<svg xmlns="http://www.w3.org/2000/svg" width="512" height="512"><path d="M474.513 131.622H348V50c0-27.57-22.43-50-50-50H50C22.43 0 0 22.43 0 50v412c0 27.57 22.43 50 50 50h248c27.57 0 50-22.43 50-50v-85.026h126.513c20.671 0 37.487-16.817 37.487-37.487V169.109c0-20.67-16.816-37.487-37.487-37.487zm-12.412 20l-20 20H346.96c-5.522 0-10 4.477-10 10s4.478 10 10 10h75.141l-51.406 51.406c-15.822 15.822-41.566 15.822-57.389 0l-91.407-91.406h240.202zm-171.878 96.609l-97.172 97.172a17.384 17.384 0 01-1.051-5.916V169.109c0-5.231 2.321-9.921 5.973-13.128l92.25 92.25zM20 50c0-16.542 13.458-30 30-30h248c16.542 0 30 13.458 30 30v14H20V50zm308 412c0 16.542-13.458 30-30 30H50c-16.542 0-30-13.458-30-30v-4h240.565c5.522 0 10-4.477 10-10s-4.478-10-10-10H20V84h308v47.622H209.487c-20.671 0-37.487 16.817-37.487 37.487v170.378c0 20.67 16.816 37.487 37.487 37.487H328V462zM209.766 356.974l20-20H338c5.522 0 10-4.477 10-10s-4.478-10-10-10h-88.234l54.928-54.928c21.724 17.009 52.458 17.096 74.274.262l94.667 94.666H209.766zM492 339.487c0 2.243-.44 4.382-1.213 6.355l-97.311-97.31 92.551-92.55c3.652 3.206 5.973 7.896 5.973 13.127v170.378z" data-original="#000000" class="active-path" data-old_color="#000000" fill="#8E0000"/><path d="M298.315 438h-.096c-5.522 0-9.952 4.477-9.952 10s4.526 10 10.048 10 10-4.477 10-10-4.478-10-10-10zM386.74 319.9c-1.86-1.86-4.44-2.93-7.07-2.93s-5.21 1.07-7.069 2.93a10.1 10.1 0 00-2.931 7.08c0 2.63 1.07 5.2 2.931 7.07 1.859 1.86 4.439 2.92 7.069 2.92s5.21-1.06 7.07-2.92c1.86-1.87 2.93-4.44 2.93-7.07 0-2.64-1.069-5.21-2.93-7.08zM181.07 33.93C179.209 32.07 176.63 31 174 31s-5.21 1.07-7.069 2.93A10.072 10.072 0 00164 41c0 2.64 1.07 5.21 2.931 7.07C168.79 49.93 171.37 51 174 51s5.21-1.07 7.07-2.93S184 43.63 184 41s-1.069-5.21-2.93-7.07z" data-original="#000000" class="active-path" data-old_color="#000000" fill="#8E0000"/></svg>