<svg xmlns="http://www.w3.org/2000/svg" height="512" viewBox="0 0 511.928 511.928" width="512"><path d="M436.451 305.103c-9.764-9.764-22.745-15.141-36.553-15.141s-26.789 5.377-36.553 15.141l-21.7 21.7c-12.595 12.594-33.089 12.596-45.684 0L185.768 216.609c-12.595-12.595-12.595-33.088 0-45.683l21.7-21.7c20.155-20.156 20.155-52.951 0-73.106l-60.98-60.979c-20.154-20.153-52.95-20.155-73.105 0L45.032 43.49c-60.042 60.044-60.042 157.743.001 217.787l70.99 70.989c3.905 3.904 10.237 3.904 14.142 0 3.905-3.905 3.905-10.237 0-14.143l-70.99-70.989C10.948 198.907 7.241 122.764 48.049 70.241l110.05 110.05c-4.621 17.438-.122 36.812 13.527 50.461L281.82 340.946c13.649 13.648 33.022 18.147 50.46 13.526l109.406 109.407c-52.522 40.808-128.666 37.102-176.893-11.126l-70.989-70.989c-3.905-3.904-10.238-3.904-14.142 0-3.905 3.905-3.905 10.237 0 14.143l70.989 70.989c30.021 30.021 69.457 45.032 108.893 45.032s78.872-15.011 108.894-45.032l28.349-28.351c9.764-9.764 15.141-22.745 15.141-36.553s-5.377-26.789-15.141-36.554zM61.45 55.357l26.075-26.074c12.358-12.358 32.465-12.357 44.822 0l60.979 60.98c12.357 12.356 12.357 32.464 0 44.821l-21.7 21.7a52.556 52.556 0 00-4.107 4.642zm421.194 369.045l-26.075 26.075-105.424-105.424a52.705 52.705 0 004.642-4.106l21.7-21.7c5.986-5.987 13.945-9.283 22.411-9.283 8.465 0 16.424 3.296 22.411 9.283l60.336 60.335c5.986 5.986 9.283 13.945 9.283 22.411 0 8.465-3.297 16.423-9.284 22.409zM319.532 141.268c28.192.001 51.127 22.937 51.128 51.128 0 8.025 3.125 15.57 8.8 21.246 5.675 5.675 13.221 8.8 21.247 8.8s15.571-3.125 21.246-8.8 8.801-13.221 8.8-21.246c0-29.665-11.581-57.583-32.609-78.612-21.029-21.028-48.947-32.609-78.612-32.609-16.568 0-30.047 13.479-30.047 30.047.001 16.565 13.479 30.045 30.047 30.046zm.001-40.094c24.323 0 47.218 9.501 64.47 26.752 17.251 17.251 26.751 40.146 26.751 64.47 0 2.684-1.045 5.206-2.942 7.104s-4.421 2.942-7.104 2.942a9.98 9.98 0 01-7.104-2.942 9.978 9.978 0 01-2.943-7.104c-.001-39.219-31.908-71.127-71.126-71.128-5.541-.001-10.048-4.508-10.048-10.047-.001-5.54 4.505-10.047 10.046-10.047z" data-original="#000000" class="active-path" data-old_color="#000000" fill="#8E0000"/><path d="M319.533 60.094c72.951 0 132.301 59.35 132.302 132.301 0 8.026 3.126 15.571 8.8 21.247v-.001c5.674 5.676 13.22 8.801 21.246 8.801 16.568 0 30.047-13.479 30.047-30.047C511.928 86.308 425.619 0 319.533 0c-16.568 0-30.046 13.479-30.046 30.047-.001 16.568 13.478 30.047 30.046 30.047zm0-40.094c95.059 0 172.395 77.336 172.395 172.395 0 5.54-4.507 10.047-10.047 10.047a9.984 9.984 0 01-7.104-2.941v-.001a9.98 9.98 0 01-2.943-7.104c-.001-83.979-68.323-152.301-152.302-152.301-5.54 0-10.046-4.507-10.046-10.047 0-5.541 4.507-10.048 10.047-10.048zM298.014 213.913c5.591 5.591 13.335 8.797 21.246 8.797s15.655-3.206 21.247-8.797c5.595-5.596 8.804-13.342 8.804-21.254 0-7.902-3.209-15.644-8.804-21.238-5.595-5.597-13.337-8.806-21.254-8.806-7.913.011-15.655 3.22-21.24 8.805-5.591 5.591-8.797 13.335-8.797 21.247.001 7.911 3.207 15.654 8.797 21.245v.001zm14.143-28.351a10.152 10.152 0 017.111-2.947c2.599 0 5.252 1.102 7.097 2.947a10.107 10.107 0 012.947 7.097c0 2.646-1.074 5.239-2.946 7.111-1.868 1.868-4.458 2.94-7.105 2.94s-5.235-1.071-7.104-2.94c-1.841-1.841-2.939-4.497-2.94-7.104 0-2.607 1.099-5.263 2.94-7.104zM154.917 347.02c-2.64 0-5.22 1.061-7.08 2.92a10.066 10.066 0 00-2.92 7.07c0 2.64 1.06 5.22 2.92 7.08a10.1 10.1 0 007.08 2.93c2.63 0 5.2-1.069 7.07-2.93 1.86-1.86 2.92-4.44 2.92-7.08 0-2.63-1.06-5.21-2.92-7.07s-4.44-2.92-7.07-2.92z" data-original="#000000" class="active-path" data-old_color="#000000" fill="#8E0000"/></svg>