<svg xmlns="http://www.w3.org/2000/svg" viewBox="0 0 496 496" width="512" height="512"><path d="M248 0C111.033 0 0 111.033 0 248s111.033 248 248 248 248-111.033 248-248C495.841 111.099 384.901.159 248 0zm0 480C119.87 480 16 376.13 16 248S119.87 16 248 16s232 103.87 232 232c-.141 128.072-103.928 231.859-232 232z" data-original="#000000" class="active-path" data-old_color="#000000" fill="#8E0000"/><path d="M370.344 158.344L208 320.688l-82.344-82.344a8 8 0 00-11.312 11.312l88 88a8 8 0 0011.312 0l168-168a8 8 0 00-11.312-11.312z" data-original="#000000" class="active-path" data-old_color="#000000" fill="#8E0000"/></svg>