<svg xmlns="http://www.w3.org/2000/svg" data-name="Layer 1" width="448" height="448"><path d="M152.885 315.43V132.57L295.115 224zm8-168.207v153.554L280.321 224z" data-original="#000000" class="active-path" data-old_color="#000000" fill="#fff"/><path d="M8 224C8 104.707 104.707 8 224 8c100.247 0 184.533 68.3 208.9 160.894l7.858-1.593C415.644 71.045 328.122 0 224 0 100.288 0 0 100.288 0 224c0 6.459.289 12.849.825 19.169l7.983-.542A218.54 218.54 0 018 224zM440 224c0 119.293-96.707 216-216 216-106.72 0-195.351-77.4-212.851-179.123l-7.933 1.072C21.245 367.585 113.225 448 224 448c123.712 0 224-100.288 224-224zM439.194 205.2a217.204 217.204 0 00-2.345-18.177l7.882-1.36a224.779 224.779 0 012.434 18.85z" data-original="#000000" class="active-path" data-old_color="#000000" fill="#fff"/><path d="M224 420.5c-108.351 0-196.5-88.149-196.5-196.5a196.815 196.815 0 0123.4-93.067l7.043 3.794A188.789 188.789 0 0035.5 224c0 103.939 84.561 188.5 188.5 188.5S412.5 327.939 412.5 224 327.939 35.5 224 35.5A188.535 188.535 0 0068.1 118l-6.611-4.5A196.526 196.526 0 01224 27.5c108.351 0 196.5 88.149 196.5 196.5S332.351 420.5 224 420.5z" data-original="#000000" class="active-path" data-old_color="#000000" fill="#fff"/></svg>